<svg xmlns="http://www.w3.org/2000/svg" xmlns:xlink="http://www.w3.org/1999/xlink" viewBox="0 0 17.034 19.101">
  <defs>
    <style>
      .cls-1 {
        fill: url(#linear-gradient);
      }
    </style>
    <linearGradient id="linear-gradient" x1="0.5" x2="0.5" y2="1" gradientUnits="objectBoundingBox">
      <stop offset="0" stop-color="#24c6dc"/>
      <stop offset="1" stop-color="#514a9d"/>
    </linearGradient>
  </defs>
  <g id="add-user" transform="translate(-39.365 -1)">
    <g id="Group_416" data-name="Group 416" transform="translate(39.365 1)">
      <g id="Group_415" data-name="Group 415">
        <path id="Path_456" data-name="Path 456" class="cls-1" d="M51.673,12h-.02a3.027,3.027,0,0,0-1.944-.765A2.393,2.393,0,0,1,47.327,9.32a4.139,4.139,0,0,0,.938-.893,5.453,5.453,0,0,0,1.074-2.832,4.043,4.043,0,0,0,.333-1.616A3.931,3.931,0,0,0,45.8,0a3.742,3.742,0,0,0-1.608.363,2.961,2.961,0,0,0-.566.1,3.65,3.65,0,0,0-2.238,4.589,4.44,4.44,0,0,0,.189.555,5.023,5.023,0,0,0,2.007,3.71,2.458,2.458,0,0,1-2.428,1.921,2.822,2.822,0,0,0-2.791,2.752v2.524a1.153,1.153,0,0,0,1.178,1.123h7.318a.417.417,0,1,0,0-.833H39.543a.3.3,0,0,1-.3-.29V13.987a1.973,1.973,0,0,1,2.016-1.922,3.518,3.518,0,0,0,1.264-.264,4.378,4.378,0,0,0,5.876,0,3.4,3.4,0,0,0,1.217.261,2.229,2.229,0,0,1,.8.143,3.573,3.573,0,0,0-2.466,3.343,3.731,3.731,0,0,0,7.453,0A3.647,3.647,0,0,0,51.673,12ZM43.869,1.26a2.068,2.068,0,0,1,.461-.071.454.454,0,0,0,.183-.047A2.85,2.85,0,0,1,45.8.833a3.078,3.078,0,0,1,3,3.146c0,.054,0,.108,0,.162A1.448,1.448,0,0,0,47.553,3.6h-2.78a.749.749,0,0,1-.437-.138.7.7,0,0,1-.242-.3.537.537,0,0,0-1,.063,3.533,3.533,0,0,1-.879,1.526A2.809,2.809,0,0,1,43.869,1.26Zm-.4,6.815a4.549,4.549,0,0,1-1.007-2.4,4.452,4.452,0,0,0,1.251-1.62q.047.04.1.076a1.644,1.644,0,0,0,.959.3h2.78a.924.924,0,0,1,.935.818A4.215,4.215,0,0,1,46.67,8.737a2.469,2.469,0,0,1-1.213.339A2.64,2.64,0,0,1,43.471,8.075ZM45.458,12.1a3.457,3.457,0,0,1-2.164-.755,3.127,3.127,0,0,0,1.091-1.623,3.208,3.208,0,0,0,2.141,0,3.129,3.129,0,0,0,1.093,1.621A3.457,3.457,0,0,1,45.458,12.1Zm6.215,6.074a2.63,2.63,0,1,1,2.756-2.627A2.7,2.7,0,0,1,51.673,18.175Z" transform="translate(-38.365 0)"/>
      </g>
    </g>
    <g id="Group_418" data-name="Group 418" transform="translate(50.922 14.849)">
      <g id="Group_417" data-name="Group 417">
        <path id="Path_457" data-name="Path 457" class="cls-1" d="M333.052,369.635H332.2v-.816a.446.446,0,0,0-.891,0v.816h-.847a.429.429,0,1,0,0,.858h.847v.816a.446.446,0,0,0,.891,0v-.816h.847a.429.429,0,1,0,0-.858Z" transform="translate(-330.022 -368.389)"/>
      </g>
    </g>
  </g>
</svg>
