<svg xmlns="http://www.w3.org/2000/svg" xmlns:xlink="http://www.w3.org/1999/xlink" viewBox="0 0 542.5 528.443">
  <defs>
    <style>
      .cls-1, .cls-3, .cls-5 {
        fill: none;
      }

      .cls-2 {
        clip-path: url(#clip-path);
      }

      .cls-3, .cls-5 {
        stroke: #514a9d;
      }

      .cls-3 {
        stroke-dasharray: 1.5;
      }

      .cls-4 {
        clip-path: url(#clip-path-2);
      }

      .cls-5 {
        stroke-width: 3px;
      }

      .cls-6 {
        fill: #24c6dc;
      }

      .cls-7 {
        fill: #fffdfd;
        font-size: 12px;
        font-family: Futura-Bold, Futura;
        font-weight: 700;
      }

      .cls-8 {
        stroke: none;
      }

      .cls-9 {
        filter: url(#Rectangle_65);
      }
    </style>
    <filter id="Rectangle_65" x="0" y="0" width="542.5" height="528.443" filterUnits="userSpaceOnUse">
      <feOffset dy="3" input="SourceAlpha"/>
      <feGaussianBlur stdDeviation="3" result="blur"/>
      <feFlood/>
      <feComposite operator="in" in2="blur"/>
      <feComposite in="SourceGraphic"/>
    </filter>
    <clipPath id="clip-path">
      <rect class="cls-1" width="524.5" height="470.444"/>
    </clipPath>
    <clipPath id="clip-path-2">
      <rect class="cls-1" width="478.5" height="510.444"/>
    </clipPath>
  </defs>
  <g id="Group_357" data-name="Group 357" transform="translate(-19 -140)">
    <g class="cls-9" transform="matrix(1, 0, 0, 1, 19, 140)">
      <rect id="Rectangle_65-2" data-name="Rectangle 65" width="524.5" height="510.444" rx="5" transform="translate(9 6)"/>
    </g>
    <g id="Repeat_Grid_4" data-name="Repeat Grid 4" class="cls-2" transform="translate(28.5 171.5)">
      <g transform="translate(-28.5 -171.5)">
        <path id="Path_434" data-name="Path 434" class="cls-3" d="M0,0,404.176.836,967,2" transform="translate(28.5 171.5)"/>
      </g>
      <g transform="translate(-28.5 -149.5)">
        <path id="Path_434-2" data-name="Path 434" class="cls-3" d="M0,0,404.176.836,967,2" transform="translate(28.5 171.5)"/>
      </g>
      <g transform="translate(-28.5 -127.5)">
        <path id="Path_434-3" data-name="Path 434" class="cls-3" d="M0,0,404.176.836,967,2" transform="translate(28.5 171.5)"/>
      </g>
      <g transform="translate(-28.5 -105.5)">
        <path id="Path_434-4" data-name="Path 434" class="cls-3" d="M0,0,404.176.836,967,2" transform="translate(28.5 171.5)"/>
      </g>
      <g transform="translate(-28.5 -83.5)">
        <path id="Path_434-5" data-name="Path 434" class="cls-3" d="M0,0,404.176.836,967,2" transform="translate(28.5 171.5)"/>
      </g>
      <g transform="translate(-28.5 -61.5)">
        <path id="Path_434-6" data-name="Path 434" class="cls-3" d="M0,0,404.176.836,967,2" transform="translate(28.5 171.5)"/>
      </g>
      <g transform="translate(-28.5 -39.5)">
        <path id="Path_434-7" data-name="Path 434" class="cls-3" d="M0,0,404.176.836,967,2" transform="translate(28.5 171.5)"/>
      </g>
      <g transform="translate(-28.5 -17.5)">
        <path id="Path_434-8" data-name="Path 434" class="cls-3" d="M0,0,404.176.836,967,2" transform="translate(28.5 171.5)"/>
      </g>
      <g transform="translate(-28.5 4.5)">
        <path id="Path_434-9" data-name="Path 434" class="cls-3" d="M0,0,404.176.836,967,2" transform="translate(28.5 171.5)"/>
      </g>
      <g transform="translate(-28.5 26.5)">
        <path id="Path_434-10" data-name="Path 434" class="cls-3" d="M0,0,404.176.836,967,2" transform="translate(28.5 171.5)"/>
      </g>
      <g transform="translate(-28.5 48.5)">
        <path id="Path_434-11" data-name="Path 434" class="cls-3" d="M0,0,404.176.836,967,2" transform="translate(28.5 171.5)"/>
      </g>
      <g transform="translate(-28.5 70.5)">
        <path id="Path_434-12" data-name="Path 434" class="cls-3" d="M0,0,404.176.836,967,2" transform="translate(28.5 171.5)"/>
      </g>
      <g transform="translate(-28.5 92.5)">
        <path id="Path_434-13" data-name="Path 434" class="cls-3" d="M0,0,404.176.836,967,2" transform="translate(28.5 171.5)"/>
      </g>
      <g transform="translate(-28.5 114.5)">
        <path id="Path_434-14" data-name="Path 434" class="cls-3" d="M0,0,404.176.836,967,2" transform="translate(28.5 171.5)"/>
      </g>
      <g transform="translate(-28.5 136.5)">
        <path id="Path_434-15" data-name="Path 434" class="cls-3" d="M0,0,404.176.836,967,2" transform="translate(28.5 171.5)"/>
      </g>
      <g transform="translate(-28.5 158.5)">
        <path id="Path_434-16" data-name="Path 434" class="cls-3" d="M0,0,404.176.836,967,2" transform="translate(28.5 171.5)"/>
      </g>
      <g transform="translate(-28.5 180.5)">
        <path id="Path_434-17" data-name="Path 434" class="cls-3" d="M0,0,404.176.836,967,2" transform="translate(28.5 171.5)"/>
      </g>
      <g transform="translate(-28.5 202.5)">
        <path id="Path_434-18" data-name="Path 434" class="cls-3" d="M0,0,404.176.836,967,2" transform="translate(28.5 171.5)"/>
      </g>
      <g transform="translate(-28.5 224.5)">
        <path id="Path_434-19" data-name="Path 434" class="cls-3" d="M0,0,404.176.836,967,2" transform="translate(28.5 171.5)"/>
      </g>
      <g transform="translate(-28.5 246.5)">
        <path id="Path_434-20" data-name="Path 434" class="cls-3" d="M0,0,404.176.836,967,2" transform="translate(28.5 171.5)"/>
      </g>
      <g transform="translate(-28.5 268.5)">
        <path id="Path_434-21" data-name="Path 434" class="cls-3" d="M0,0,404.176.836,967,2" transform="translate(28.5 171.5)"/>
      </g>
      <g transform="translate(-28.5 290.5)">
        <path id="Path_434-22" data-name="Path 434" class="cls-3" d="M0,0,404.176.836,967,2" transform="translate(28.5 171.5)"/>
      </g>
    </g>
    <g id="Repeat_Grid_5" data-name="Repeat Grid 5" class="cls-4" transform="translate(66.5 146.5)">
      <g transform="translate(-66.5 -146.5)">
        <line id="Line_115" data-name="Line 115" class="cls-3" y2="498.78" transform="translate(68.5 146.5)"/>
      </g>
      <g transform="translate(-44.5 -146.5)">
        <line id="Line_115-2" data-name="Line 115" class="cls-3" y2="498.78" transform="translate(68.5 146.5)"/>
      </g>
      <g transform="translate(-22.5 -146.5)">
        <line id="Line_115-3" data-name="Line 115" class="cls-3" y2="498.78" transform="translate(68.5 146.5)"/>
      </g>
      <g transform="translate(-0.5 -146.5)">
        <line id="Line_115-4" data-name="Line 115" class="cls-3" y2="498.78" transform="translate(68.5 146.5)"/>
      </g>
      <g transform="translate(21.5 -146.5)">
        <line id="Line_115-5" data-name="Line 115" class="cls-3" y2="498.78" transform="translate(68.5 146.5)"/>
      </g>
      <g transform="translate(43.5 -146.5)">
        <line id="Line_115-6" data-name="Line 115" class="cls-3" y2="498.78" transform="translate(68.5 146.5)"/>
      </g>
      <g transform="translate(65.5 -146.5)">
        <line id="Line_115-7" data-name="Line 115" class="cls-3" y2="498.78" transform="translate(68.5 146.5)"/>
      </g>
      <g transform="translate(87.5 -146.5)">
        <line id="Line_115-8" data-name="Line 115" class="cls-3" y2="498.78" transform="translate(68.5 146.5)"/>
      </g>
      <g transform="translate(109.5 -146.5)">
        <line id="Line_115-9" data-name="Line 115" class="cls-3" y2="498.78" transform="translate(68.5 146.5)"/>
      </g>
      <g transform="translate(131.5 -146.5)">
        <line id="Line_115-10" data-name="Line 115" class="cls-3" y2="498.78" transform="translate(68.5 146.5)"/>
      </g>
      <g transform="translate(153.5 -146.5)">
        <line id="Line_115-11" data-name="Line 115" class="cls-3" y2="498.78" transform="translate(68.5 146.5)"/>
      </g>
      <g transform="translate(175.5 -146.5)">
        <line id="Line_115-12" data-name="Line 115" class="cls-3" y2="498.78" transform="translate(68.5 146.5)"/>
      </g>
      <g transform="translate(197.5 -146.5)">
        <line id="Line_115-13" data-name="Line 115" class="cls-3" y2="498.78" transform="translate(68.5 146.5)"/>
      </g>
      <g transform="translate(219.5 -146.5)">
        <line id="Line_115-14" data-name="Line 115" class="cls-3" y2="498.78" transform="translate(68.5 146.5)"/>
      </g>
      <g transform="translate(241.5 -146.5)">
        <line id="Line_115-15" data-name="Line 115" class="cls-3" y2="498.78" transform="translate(68.5 146.5)"/>
      </g>
      <g transform="translate(263.5 -146.5)">
        <line id="Line_115-16" data-name="Line 115" class="cls-3" y2="498.78" transform="translate(68.5 146.5)"/>
      </g>
      <g transform="translate(285.5 -146.5)">
        <line id="Line_115-17" data-name="Line 115" class="cls-3" y2="498.78" transform="translate(68.5 146.5)"/>
      </g>
      <g transform="translate(307.5 -146.5)">
        <line id="Line_115-18" data-name="Line 115" class="cls-3" y2="498.78" transform="translate(68.5 146.5)"/>
      </g>
      <g transform="translate(329.5 -146.5)">
        <line id="Line_115-19" data-name="Line 115" class="cls-3" y2="498.78" transform="translate(68.5 146.5)"/>
      </g>
      <g transform="translate(351.5 -146.5)">
        <line id="Line_115-20" data-name="Line 115" class="cls-3" y2="498.78" transform="translate(68.5 146.5)"/>
      </g>
      <g transform="translate(373.5 -146.5)">
        <line id="Line_115-21" data-name="Line 115" class="cls-3" y2="498.78" transform="translate(68.5 146.5)"/>
      </g>
      <g transform="translate(395.5 -146.5)">
        <line id="Line_115-22" data-name="Line 115" class="cls-3" y2="498.78" transform="translate(68.5 146.5)"/>
      </g>
      <g transform="translate(-66.5 348.5)">
        <line id="Line_115-23" data-name="Line 115" class="cls-3" y2="498.78" transform="translate(68.5 146.5)"/>
      </g>
      <g transform="translate(-44.5 348.5)">
        <line id="Line_115-24" data-name="Line 115" class="cls-3" y2="498.78" transform="translate(68.5 146.5)"/>
      </g>
      <g transform="translate(-22.5 348.5)">
        <line id="Line_115-25" data-name="Line 115" class="cls-3" y2="498.78" transform="translate(68.5 146.5)"/>
      </g>
      <g transform="translate(-0.5 348.5)">
        <line id="Line_115-26" data-name="Line 115" class="cls-3" y2="498.78" transform="translate(68.5 146.5)"/>
      </g>
      <g transform="translate(21.5 348.5)">
        <line id="Line_115-27" data-name="Line 115" class="cls-3" y2="498.78" transform="translate(68.5 146.5)"/>
      </g>
      <g transform="translate(43.5 348.5)">
        <line id="Line_115-28" data-name="Line 115" class="cls-3" y2="498.78" transform="translate(68.5 146.5)"/>
      </g>
      <g transform="translate(65.5 348.5)">
        <line id="Line_115-29" data-name="Line 115" class="cls-3" y2="498.78" transform="translate(68.5 146.5)"/>
      </g>
      <g transform="translate(87.5 348.5)">
        <line id="Line_115-30" data-name="Line 115" class="cls-3" y2="498.78" transform="translate(68.5 146.5)"/>
      </g>
      <g transform="translate(109.5 348.5)">
        <line id="Line_115-31" data-name="Line 115" class="cls-3" y2="498.78" transform="translate(68.5 146.5)"/>
      </g>
      <g transform="translate(131.5 348.5)">
        <line id="Line_115-32" data-name="Line 115" class="cls-3" y2="498.78" transform="translate(68.5 146.5)"/>
      </g>
      <g transform="translate(153.5 348.5)">
        <line id="Line_115-33" data-name="Line 115" class="cls-3" y2="498.78" transform="translate(68.5 146.5)"/>
      </g>
      <g transform="translate(175.5 348.5)">
        <line id="Line_115-34" data-name="Line 115" class="cls-3" y2="498.78" transform="translate(68.5 146.5)"/>
      </g>
      <g transform="translate(197.5 348.5)">
        <line id="Line_115-35" data-name="Line 115" class="cls-3" y2="498.78" transform="translate(68.5 146.5)"/>
      </g>
      <g transform="translate(219.5 348.5)">
        <line id="Line_115-36" data-name="Line 115" class="cls-3" y2="498.78" transform="translate(68.5 146.5)"/>
      </g>
      <g transform="translate(241.5 348.5)">
        <line id="Line_115-37" data-name="Line 115" class="cls-3" y2="498.78" transform="translate(68.5 146.5)"/>
      </g>
      <g transform="translate(263.5 348.5)">
        <line id="Line_115-38" data-name="Line 115" class="cls-3" y2="498.78" transform="translate(68.5 146.5)"/>
      </g>
      <g transform="translate(285.5 348.5)">
        <line id="Line_115-39" data-name="Line 115" class="cls-3" y2="498.78" transform="translate(68.5 146.5)"/>
      </g>
      <g transform="translate(307.5 348.5)">
        <line id="Line_115-40" data-name="Line 115" class="cls-3" y2="498.78" transform="translate(68.5 146.5)"/>
      </g>
      <g transform="translate(329.5 348.5)">
        <line id="Line_115-41" data-name="Line 115" class="cls-3" y2="498.78" transform="translate(68.5 146.5)"/>
      </g>
      <g transform="translate(351.5 348.5)">
        <line id="Line_115-42" data-name="Line 115" class="cls-3" y2="498.78" transform="translate(68.5 146.5)"/>
      </g>
      <g transform="translate(373.5 348.5)">
        <line id="Line_115-43" data-name="Line 115" class="cls-3" y2="498.78" transform="translate(68.5 146.5)"/>
      </g>
      <g transform="translate(395.5 348.5)">
        <line id="Line_115-44" data-name="Line 115" class="cls-3" y2="498.78" transform="translate(68.5 146.5)"/>
      </g>
    </g>
    <g id="Rectangle_66" data-name="Rectangle 66" class="cls-5" transform="translate(88 172)">
      <rect class="cls-8" width="465.5" height="463.444"/>
      <rect class="cls-1" x="1.5" y="1.5" width="462.5" height="460.444"/>
    </g>
    <line id="Line_116" data-name="Line 116" class="cls-3" x1="1" y2="510.887" transform="translate(47.628 146.5)"/>
    <g id="Group_500" data-name="Group 500" transform="translate(191.202 271.78)">
      <g id="Group_399" data-name="Group 399" transform="translate(0 133)">
        <circle id="Ellipse_107" data-name="Ellipse 107" class="cls-6" cx="10" cy="10" r="10"/>
        <text id="_3" data-name="3" class="cls-7" transform="translate(6 15)"><tspan x="0" y="0">3</tspan></text>
      </g>
      <g id="Group_501" data-name="Group 501" transform="translate(0 199)">
        <circle id="Ellipse_107-2" data-name="Ellipse 107" class="cls-6" cx="10" cy="10" r="10"/>
        <text id="_4" data-name="4" class="cls-7" transform="translate(6 15)"><tspan x="0" y="0">4</tspan></text>
      </g>
      <g id="Group_502" data-name="Group 502" transform="translate(0 67)">
        <circle id="Ellipse_107-3" data-name="Ellipse 107" class="cls-6" cx="10" cy="10" r="10"/>
        <text id="_2" data-name="2" class="cls-7" transform="translate(6 15)"><tspan x="0" y="0">2</tspan></text>
      </g>
      <g id="Group_503" data-name="Group 503">
        <circle id="Ellipse_107-4" data-name="Ellipse 107" class="cls-6" cx="10" cy="10" r="10"/>
        <text id="_1" data-name="1" class="cls-7" transform="translate(6 15)"><tspan x="0" y="0">1</tspan></text>
      </g>
      <g id="Group_505" data-name="Group 505" transform="translate(67 55)">
        <circle id="Ellipse_107-5" data-name="Ellipse 107" class="cls-6" cx="10" cy="10" r="10"/>
        <text id="_1-2" data-name="1" class="cls-7" transform="translate(6 15)"><tspan x="0" y="0">1</tspan></text>
      </g>
      <g id="Group_506" data-name="Group 506" transform="translate(67 55)">
        <circle id="Ellipse_107-6" data-name="Ellipse 107" class="cls-6" cx="10" cy="10" r="10"/>
        <text id="_5" data-name="5" class="cls-7" transform="translate(6 15)"><tspan x="0" y="0">5</tspan></text>
      </g>
      <g id="Group_507" data-name="Group 507" transform="translate(110 99)">
        <circle id="Ellipse_107-7" data-name="Ellipse 107" class="cls-6" cx="10" cy="10" r="10"/>
        <text id="_6" data-name="6" class="cls-7" transform="translate(6 15)"><tspan x="0" y="0">6</tspan></text>
      </g>
      <g id="Group_508" data-name="Group 508" transform="translate(154 55)">
        <circle id="Ellipse_107-8" data-name="Ellipse 107" class="cls-6" cx="10" cy="10" r="10"/>
        <text id="_7" data-name="7" class="cls-7" transform="translate(6 15)"><tspan x="0" y="0">7</tspan></text>
      </g>
      <g id="Group_509" data-name="Group 509" transform="translate(220 1)">
        <circle id="Ellipse_107-9" data-name="Ellipse 107" class="cls-6" cx="10" cy="10" r="10"/>
        <text id="_8" data-name="8" class="cls-7" transform="translate(6 15)"><tspan x="0" y="0">8</tspan></text>
      </g>
      <g id="Group_513" data-name="Group 513" transform="translate(220 199)">
        <circle id="Ellipse_107-10" data-name="Ellipse 107" class="cls-6" cx="10" cy="10" r="10"/>
        <text id="_11" data-name="11" class="cls-7" transform="translate(3 15)"><tspan x="0" y="0">11</tspan></text>
      </g>
      <g id="Group_514" data-name="Group 514" transform="translate(220 133)">
        <circle id="Ellipse_107-11" data-name="Ellipse 107" class="cls-6" cx="10" cy="10" r="10"/>
        <text id="_10" data-name="10" class="cls-7" transform="translate(2 15)"><tspan x="0" y="0">10</tspan></text>
      </g>
      <g id="Group_515" data-name="Group 515" transform="translate(220 67)">
        <circle id="Ellipse_107-12" data-name="Ellipse 107" class="cls-6" cx="10" cy="10" r="10"/>
        <text id="_9" data-name="9" class="cls-7" transform="translate(6 15)"><tspan x="0" y="0">9</tspan></text>
      </g>
    </g>
  </g>
</svg>
