<?xml version="1.0" encoding="UTF-8"?>
<svg width="46px" height="44px" viewBox="0 0 46 44" version="1.1" xmlns="http://www.w3.org/2000/svg" xmlns:xlink="http://www.w3.org/1999/xlink">
    <!-- Generator: Sketch 52.2 (67145) - http://www.bohemiancoding.com/sketch -->
    <title>Group 2</title>
    <desc>Created with Sketch.</desc>
    <defs>
        <filter x="-21.1%" y="-21.6%" width="142.1%" height="143.2%" filterUnits="objectBoundingBox" id="filter-1">
            <feOffset dx="0" dy="0" in="SourceAlpha" result="shadowOffsetOuter1"></feOffset>
            <feGaussianBlur stdDeviation="2" in="shadowOffsetOuter1" result="shadowBlurOuter1"></feGaussianBlur>
            <feColorMatrix values="0 0 0 0 0   0 0 0 0 0   0 0 0 0 0  0 0 0 0.0391191123 0" type="matrix" in="shadowBlurOuter1" result="shadowMatrixOuter1"></feColorMatrix>
            <feMerge>
                <feMergeNode in="shadowMatrixOuter1"></feMergeNode>
                <feMergeNode in="SourceGraphic"></feMergeNode>
            </feMerge>
        </filter>
        <linearGradient x1="50%" y1="0%" x2="54.8393814%" y2="100%" id="linearGradient-2">
            <stop stop-color="#24C6DC" offset="0%"></stop>
            <stop stop-color="#514A9D" offset="100%"></stop>
        </linearGradient>
    </defs>
    <g id="Page-1" stroke="none" stroke-width="1" fill="none" fill-rule="evenodd">
        <g id="A4" transform="translate(-55.000000, -176.000000)">
            <g id="Group-2" transform="translate(59.000000, 179.000000)">
                <g id="Asset-1" filter="url(#filter-1)" transform="translate(19.708802, 19.810192) rotate(2.000000) translate(-19.708802, -19.810192) translate(0.708802, 1.310192)" fill="url(#linearGradient-2)">
                    <path d="M37.7015134,34.7254203 C35.7251506,31.5949547 34.3320593,29.2428874 33.5222396,27.6692182 C32.2406245,25.1787939 31.0755197,22.6411258 30.3138865,20.0190938 C28.866136,15.0298088 28.974016,9.89541788 29.1617273,4.80658346 C29.174673,4.55349156 29.185461,4.30039967 29.1919338,4.04730777 C29.1984066,3.79421587 28.4971861,3.37239604 28.3590997,3.26609745 C27.6038276,2.7318483 26.8115075,2.23052978 25.9857382,1.76441885 C25.174829,1.28049053 24.3322218,0.829938399 23.4613446,0.4145954 C23.3599374,0.36735158 22.2681911,-0.0915883945 22.2638759,0.0163974818 C22.2638759,0.264427541 22.2466151,0.522581277 22.2358271,0.763862219 C22.0934254,3.63223706 21.5022426,6.50061189 20.893799,9.32511747 C20.3004587,12.0922555 19.7114335,14.9184484 18.5053344,17.5708515 C17.4653705,19.8604895 15.7220286,22.6006311 12.7186476,23.645057 C12.5233465,23.7109109 12.3230268,23.767261 12.1188344,23.813785 C11.6333741,23.1203132 11.1910658,22.4082813 10.778964,21.6911876 C10.5632038,21.3233607 9.6829025,20.8289878 9.33984388,20.6045797 C8.63430825,20.1456397 7.905039,19.7103217 7.16066654,19.2901891 C6.89528157,19.1400213 3.92426453,17.712583 3.90484612,17.8121324 C3.45174984,20.3430514 3.02022957,22.8672213 2.53045407,25.3829547 C2.06872739,27.7535822 1.42791979,30.1073368 0.0168485162,32.2518688 C-0.255009252,32.6652523 2.84762147,34.318786 3.2230441,34.5347577 C3.48411386,34.6866129 6.7722983,36.5409328 6.9449064,36.27603 C8.35597768,34.1281234 8.99678527,31.7777433 9.46066956,29.4071159 C9.76273375,27.8581935 10.0389067,26.3075838 10.3237101,24.7569741 C13.1933199,26.5859849 16.9820678,29.2097042 20.6672509,27.2204019 C23.1010252,25.9060113 24.5509333,23.6096242 25.5024355,21.4650922 C25.8418981,22.1939968 26.1950255,22.9189645 26.5618177,23.6399952 C27.8132265,26.0932993 28.9545976,28.8064445 30.8921236,30.9880966 C31.8544138,32.0747045 33.6042285,32.911595 34.9743053,33.6523107 C35.6663607,34.0559322 36.3978786,34.4164309 37.1621131,34.7304821 C37.2182107,34.754104 37.3980108,34.7524168 37.7015134,34.7254203 Z" id="Path"></path>
                </g>
                <path d="M26.1112639,22.9559046 L30.3550334,5.67737205 L26.1112639,22.9559046 Z" id="Line-2" stroke="#565656" stroke-width="0.1" fill="#D8D8D8" fill-rule="nonzero" stroke-linecap="round"></path>
                <path d="M13.8670187,27.6988564 L12.8114303,25.4612282 C11.8899765,23.6007876 11.4029554,22.6892729 11.350367,22.7266838 C11.2695202,22.7841976 11.0981474,23.4588998 11.0011514,23.9777226 C10.9862003,24.0576945 10.8081233,25.6056111 10.8081233,25.689551" id="Line" stroke="#565656" stroke-width="0.1" stroke-linecap="round" fill-rule="nonzero"></path>
            </g>
        </g>
    </g>
</svg>