<?xml version="1.0" encoding="UTF-8"?>
<svg width="202px" height="132px" viewBox="0 0 202 132" version="1.1" xmlns="http://www.w3.org/2000/svg" xmlns:xlink="http://www.w3.org/1999/xlink">
    <!-- Generator: Sketch 52.2 (67145) - http://www.bohemiancoding.com/sketch -->
    <title>Logo</title>
    <desc>Created with Sketch.</desc>
    <defs>
        <linearGradient x1="25.23666%" y1="41.451516%" x2="279.685431%" y2="104.131937%" id="linearGradient-1">
            <stop stop-color="#24C6DC" offset="0%"></stop>
            <stop stop-color="#514A9D" offset="100%"></stop>
        </linearGradient>
        <linearGradient x1="-56.6905787%" y1="41.3374706%" x2="107.084831%" y2="69.6682944%" id="linearGradient-2">
            <stop stop-color="#24C6DC" offset="0%"></stop>
            <stop stop-color="#514A9D" offset="100%"></stop>
        </linearGradient>
        <linearGradient x1="0%" y1="52.7166733%" x2="109.895944%" y2="61.5691726%" id="linearGradient-3">
            <stop stop-color="#24C6DC" offset="0%"></stop>
            <stop stop-color="#514A9D" offset="100%"></stop>
        </linearGradient>
        <linearGradient x1="-289.251145%" y1="27.9852765%" x2="35.6004198%" y2="48.1715347%" id="linearGradient-4">
            <stop stop-color="#24C6DC" offset="0%"></stop>
            <stop stop-color="#514A9D" offset="100%"></stop>
        </linearGradient>
        <linearGradient x1="4.56366%" y1="67.0903043%" x2="146.917616%" y2="-8.4352137%" id="linearGradient-5">
            <stop stop-color="#3F7AB5" offset="0%"></stop>
            <stop stop-color="#4275B3" offset="100%"></stop>
        </linearGradient>
    </defs>
    <g id="Page-1" stroke="none" stroke-width="1" fill="none" fill-rule="evenodd">
        <g id="A4" transform="translate(-64.000000, -114.000000)">
            <g id="Logo" transform="translate(62.000000, 121.000000)">
                <text id="M" fill="url(#linearGradient-1)" font-family="BulgattiRegular, Bulgatti" font-size="60" font-weight="normal">
                    <tspan x="0" y="89">M</tspan>
                </text>
                <text id="m" fill="url(#linearGradient-2)" font-family="BulgattiRegular, Bulgatti" font-size="70" font-weight="normal">
                    <tspan x="71" y="116">m</tspan>
                </text>
                <text id="uve" fill="url(#linearGradient-3)" font-family="BulgattiRegular, Bulgatti" font-size="50" font-weight="normal">
                    <tspan x="66" y="84">uve</tspan>
                </text>
                <text id="ent" fill="url(#linearGradient-4)" font-family="BulgattiRegular, Bulgatti" font-size="50" font-weight="normal">
                    <tspan x="123" y="104">en</tspan>
                    <tspan x="162.05" y="104" font-size="55">t</tspan>
                </text>
                <path d="M110.587605,63.1579724 C110.574571,63.1006026 110.579253,63.0755892 110.601651,63.082932 C110.971891,63.2043082 111.539781,63.8421001 111.641018,63.938642 C111.740399,64.0334132 111.871504,64.2123709 112.034334,64.4755153 L112.03431,64.4755296 C112.188098,64.7240605 112.225459,65.0274319 112.136567,65.3058495 C112.049221,65.5794232 111.946202,65.8238031 111.827508,66.0389894 C111.671725,66.3214182 111.417715,66.9056729 111.065479,67.7917535 L111.065486,67.7917562 C110.955153,68.0693094 110.726531,68.2830151 110.442175,68.3743998 L109.842199,68.5672168 C109.560749,68.6576675 109.259265,68.5028324 109.168814,68.2213829 C109.13224,68.1075764 109.134812,67.9848022 109.176122,67.8726277 C109.810148,66.1508661 110.178507,65.0325885 110.281166,64.5177824 C110.353945,64.1528174 110.508578,63.4814985 110.578743,63.1639107 C110.578743,63.1639107 110.578743,63.1639107 110.578743,63.1639107 L110.578743,63.1639107 C110.581323,63.1657259 110.584886,63.1651058 110.586701,63.1625258 C110.587631,63.1612039 110.587957,63.1595499 110.587599,63.1579738 Z" id="Rectangle-5" fill="url(#linearGradient-5)" fill-rule="nonzero" transform="translate(110.663544, 65.837357) rotate(32.000000) translate(-110.663544, -65.837357) "></path>
            </g>
        </g>
    </g>
</svg>